/* XPM */
static char *dummy[]={
"2 3 6 1",
"b c #000000",
"# c #04ff00",
"a c #0b00ff",
". c #ff0000",
"c c #ffe500",
"d c #ffffff",
".#",
"ab",
"cd"};
